<?xml version="1.0" encoding="utf-8"?>
<!-- Generator: Adobe Illustrator 28.1.0, SVG Export Plug-In . SVG Version: 6.00 Build 0)  -->
<svg version="1.1" id="Laag_1" xmlns="http://www.w3.org/2000/svg" xmlns:xlink="http://www.w3.org/1999/xlink" x="0px" y="0px"
	 viewBox="0 0 383.9 340.4" style="enable-background:new 0 0 383.9 340.4;" xml:space="preserve">
<g>
	<path d="M0,108.1c0.9-4,1.6-8,2.7-12c8.9-32.3,37.4-54.8,71-55.2c42-0.4,84.1-0.2,126.1-0.1c9,0,15.8,6.7,15.7,15.1
		c-0.1,8.5-6.7,14.7-16,14.8c-41.2,0-82.3,0-123.5,0c-23.7,0-42,15.8-45.6,39.2c-0.4,2.3-0.4,4.7-0.4,7.1c0,58.8,0,117.5-0.1,176.3
		c0,7.2,2.4,12.8,9.1,15.7c6.6,2.9,12.3,0.9,17.5-3.8c7.2-6.7,14.7-13.1,22-19.8c3.9-3.6,8.3-5.1,13.6-5.1
		c51.9,0.1,103.8,0.1,155.7,0c22,0,39.4-13.7,44.5-34.9c0.8-3.4,1.1-6.9,1.2-10.4c0.1-10.7,0-21.5,0.1-32.2
		c0-9.1,6.4-15.8,14.8-15.9c8.5-0.1,15.1,6.7,15.1,15.7c-0.1,14.2,0.5,28.5-0.8,42.6c-2.9,32-30.6,59.9-62.4,64.1
		c-4.7,0.6-9.4,0.9-14.2,0.9c-48.4,0.1-96.8,0.1-145.2,0c-3.6,0-6.3,0.8-9,3.4c-5.9,5.6-11.9,11-18.2,16.2
		c-26.8,22-66.5,7.5-73-26.5c-0.1-0.7-0.5-1.4-0.7-2.1C0,236.8,0,172.5,0,108.1z"/>
	<path d="M162.9,201c1.6-30.9,13.1-57,34.6-78.6C233.7,86,269.9,49.8,306.3,13.6C318.8,1.1,334.1-2.9,351,2
		c16.7,4.8,27.2,16.3,31.1,33.2c3.6,16-0.8,30.2-12.4,41.8c-32.9,33.1-65.9,66.1-99,99c-8.1,8.1-16.4,16.2-25.6,23
		c-19.3,14.3-41.3,21.1-65.3,21.5c-11.2,0.2-17.4-6.1-17-17.4C162.9,202.2,162.9,201.4,162.9,201z M193.9,189.1
		c17.6-3.6,32.1-10.9,44-22.6c37-36.7,73.8-73.6,110.6-110.5c6.5-6.5,6.5-15.7,0.3-21.7c-6.1-5.9-15.3-5.6-21.7,0.8
		c-36.5,36.5-73,73-109.5,109.5c-8.4,8.4-14.7,18.2-18.9,29.3C196.9,178.6,195.7,183.5,193.9,189.1z"/>
	<path d="M97.4,160.6c-7.4,0-14.7,0.1-22.1,0c-8.9-0.1-15.4-6.4-15.5-14.8c-0.1-8.4,6.5-15,15.3-15.1c14.8-0.1,29.7-0.2,44.5,0
		c8.8,0.1,15.2,6.9,15.1,15.2c-0.1,8.3-6.6,14.5-15.3,14.6C112.1,160.7,104.8,160.6,97.4,160.6z"/>
	<path d="M97.2,220.5c-7.2,0-14.5,0.1-21.7,0c-9-0.1-15.5-6.2-15.7-14.6c-0.1-8.5,6.5-15.2,15.5-15.3c14.6-0.1,29.2-0.1,43.7,0
		c9.1,0.1,15.7,6.6,15.7,15.1c0,8.5-6.6,14.7-15.8,14.8C111.7,220.6,104.5,220.5,97.2,220.5z"/>
</g>
</svg>
