<?xml version="1.0" encoding="utf-8"?>
<!-- Generator: Adobe Illustrator 28.1.0, SVG Export Plug-In . SVG Version: 6.00 Build 0)  -->
<svg version="1.1" id="Laag_1" xmlns="http://www.w3.org/2000/svg" xmlns:xlink="http://www.w3.org/1999/xlink" x="0px" y="0px"
	 viewBox="0 0 520.9 521.1" style="enable-background:new 0 0 520.9 521.1;" xml:space="preserve">
<style type="text/css">
	.st0{fill:#FFFFFF;}
</style>
<g>
	
		<image style="overflow:visible;" width="564" height="564" xlink:href="8D9D979C81190D7A.png"  transform="matrix(1 0 0 1 -21.5151 -21.233)">
	</image>
</g>
<circle class="st0" cx="260.4" cy="260.6" r="238.1"/>
<g>
	<path d="M87.3,204.5c0.8-3.6,1.4-7.2,2.4-10.8c8-29.1,33.7-49.4,64-49.8c37.9-0.4,75.9-0.2,113.7-0.1c8.1,0,14.3,6,14.2,13.6
		c-0.1,7.7-6,13.3-14.4,13.3c-37.2,0-74.2,0-111.4,0c-21.4,0-37.9,14.3-41.1,35.4c-0.4,2.1-0.4,4.2-0.4,6.4c0,53,0,106-0.1,159
		c0,6.5,2.2,11.5,8.2,14.2c6,2.6,11.1,0.8,15.8-3.4c6.5-6,13.3-11.8,19.8-17.9c3.5-3.2,7.5-4.6,12.3-4.6c46.8,0.1,93.6,0.1,140.4,0
		c19.8,0,35.5-12.4,40.1-31.5c0.7-3.1,1-6.2,1.1-9.4c0.1-9.7,0-19.4,0.1-29c0-8.2,5.8-14.3,13.3-14.3c7.7-0.1,13.6,6,13.6,14.2
		c-0.1,12.8,0.5,25.7-0.7,38.4c-2.6,28.9-27.6,54-56.3,57.8c-4.2,0.5-8.5,0.8-12.8,0.8c-43.7,0.1-87.3,0.1-131,0
		c-3.2,0-5.7,0.7-8.1,3.1c-5.3,5.1-10.7,9.9-16.4,14.6c-24.2,19.8-60,6.8-65.8-23.9c-0.1-0.6-0.5-1.3-0.6-1.9
		C87.3,320.6,87.3,262.6,87.3,204.5z"/>
	<path d="M234.2,288.3c1.4-27.9,11.8-51.4,31.2-70.9c32.7-32.8,65.3-65.5,98.1-98.1c11.3-11.3,25.1-14.9,40.3-10.5
		c15.1,4.3,24.5,14.7,28.1,29.9c3.2,14.4-0.7,27.2-11.2,37.7c-29.7,29.9-59.4,59.6-89.3,89.3c-7.3,7.3-14.8,14.6-23.1,20.7
		c-17.4,12.9-37.3,19-58.9,19.4c-10.1,0.2-15.7-5.5-15.3-15.7C234.2,289.4,234.2,288.7,234.2,288.3z M262.2,277.6
		c15.9-3.2,29-9.8,39.7-20.4c33.4-33.1,66.6-66.4,99.8-99.7c5.9-5.9,5.9-14.2,0.3-19.6c-5.5-5.3-13.8-5.1-19.6,0.7
		c-32.9,32.9-65.8,65.8-98.8,98.8c-7.6,7.6-13.3,16.4-17,26.4C264.9,268.1,263.8,272.6,262.2,277.6z"/>
	<path d="M175.1,251.9c-6.7,0-13.3,0.1-19.9,0c-8-0.1-13.9-5.8-14-13.3s5.9-13.5,13.8-13.6c13.3-0.1,26.8-0.2,40.1,0
		c7.9,0.1,13.7,6.2,13.6,13.7c-0.1,7.5-6,13.1-13.8,13.2C188.4,252,181.8,251.9,175.1,251.9z"/>
	<path d="M174.9,305.9c-6.5,0-13.1,0.1-19.6,0c-8.1-0.1-14-5.6-14.2-13.2c-0.1-7.7,5.9-13.7,14-13.8c13.2-0.1,26.3-0.1,39.4,0
		c8.2,0.1,14.2,6,14.2,13.6s-6,13.3-14.3,13.3C188,306,181.5,305.9,174.9,305.9z"/>
</g>
</svg>
